<svg xmlns="http://www.w3.org/2000/svg"><symbol id="crystal" viewBox="0 0 256 256"><path fill="none" stroke-linecap="round" stroke-linejoin="round" stroke-width="10" d="M128 17l45 27-31 31h-37L82 48l46-31zm-76 92l44 38-40 30-39-11 35-57zm171-2l17 55-42 18-20-41 45-32zM16.5 165.5l27 72m53 0v-90m-15-100l7.5 91m15.5-64l12 163m56-194L159 176"/><path fill="none" stroke-linecap="round" stroke-linejoin="round" stroke-width="10" d="M177.5 138.5l-46 99 10-163m-90 34l4 68 22 61m162-76l-58 78m-14 0l30-60 25-73m-193 133h168"/></symbol><symbol id="diamond" viewBox="0 0 256 256"><path fill="none" stroke-linecap="round" stroke-linejoin="round" stroke-width="10" d="M240 81.8l-21-40.5H34.6l-21 40.5L126 221.2 72.1 80.3l54.7-36.5 54.7 36.5-54 140.9L240 81.8zm-225.8.3H240M34.6 41.3l37.9 39.3m147.1-39.3l-37.9 39.3"/></symbol><symbol id="gem" viewBox="0 0 256 256"><circle cx="128" cy="128" r="52" fill="none" stroke-linecap="round" stroke-linejoin="round" stroke-width="10"/><path fill="none" stroke-linecap="round" stroke-linejoin="round" stroke-width="10" d="M95 128a33 33 0 0 1 33-33"/><circle cx="128" cy="128" r="113" fill="none" stroke-linecap="round" stroke-linejoin="round" stroke-width="10"/><path fill="none" stroke-linecap="round" stroke-linejoin="round" stroke-width="10" d="M108 178l-22.3 54.8m84.6-209.6L148 78m1.2 99.5l23 54.5M83.8 24l23 54.5M78 108L23.2 85.7m209.6 84.6L178 148m-99.5 1.2l-54.5 23m208-88.4l-54.5 23"/></symbol><symbol id="ruby" viewBox="0 0 256 256"><path fill="none" stroke-linecap="round" stroke-linejoin="round" stroke-width="10" d="M35.8 94.8h184v151.83h-184z"/><path fill="none" stroke-linecap="round" stroke-linejoin="round" stroke-width="10" d="M219.8 94L127.7 9.3 35.8 95.1m53.1-.3h77.8v151.83H88.9z"/><path fill="none" stroke-linecap="round" stroke-linejoin="round" stroke-width="10" d="M166.7 95.1L127.8 9.3 88.9 95.1"/></symbol></svg>