<svg xmlns="http://www.w3.org/2000/svg" width="256" height="256" viewBox="0 0 256 256"><path fill="#ea088c" d="M218.5 27a4.1 4.1 0 0 0-3.4-3l-86.5-11.8h-.5L72.6 11a4.3 4.3 0 0 0-3.2 1.4l-65.3 74a3.9 3.9 0 0 0-1 3.6l12 56.9L37.5 229a4.1 4.1 0 0 0 3.4 3l86.6 11.7h.4l55.5 1.2h.1a4.1 4.1 0 0 0 3.1-1.4l65.3-74a3.8 3.8 0 0 0 1-3.5L241 109zM185 233l-3 3.3-70.3-87.6 121.7-35.8.2 1.2zm49.8-113.2l9.6 45.9-52.8 59.8zM98 231.4l-51.4-7 62.3-74 69.1 86.2-30.2-.7zm26.5-211h1.3l-18.2 124.7-95.7-55.2 3.4-3.8zM22.6 77.9l51.7-58.6 44 .9zm209.6 30.2l.4 1.6-121.7 35.8 18.2-124.9 1.7.2zm-95.4-86.4l74.5 10.1 19.3 70.6zM44.2 222.1L23.1 145 12.4 94.1l94 54.1z"/></svg>