<svg xmlns="http://www.w3.org/2000/svg" width="64" height="64" viewBox="0 0 64 64"><path fill="#ea088c" d="M53 8.6a.8.8 0 0 0-.8-.7L32.1 5.1H32l-12.9-.2a1.1 1.1 0 0 0-.7.3L3.2 22.3a1.5 1.5 0 0 0-.2.9l2.8 13.2 5.2 19a.8.8 0 0 0 .8.7l20.1 2.8h.1l12.9.2a.9.9 0 0 0 .7-.3l15.2-17.1a1.5 1.5 0 0 0 .2-.9l-2.8-13.2zm-7.8 47.8l-.7.7-16.3-20.3 28.3-8.3v.3zm11.6-26.3L59 40.8 46.8 54.6zM25 56l-11.9-1.6 14.5-17.2 16 20-7-.2zm6.2-49h.3l-4.2 29L5.1 23.2l.7-.9zM7.5 20.4l12-13.6 10.2.2zm48.7 7v.3L28 36.1l4.2-29h.4zM34 7.3l17.3 2.4 4.5 16.4zM12.5 53.8L7.7 35.9 5.2 24.1 27 36.7z"/></svg>